<svg xmlns="http://www.w3.org/2000/svg" xmlns:xlink="http://www.w3.org/1999/xlink" width="500" zoomAndPan="magnify" viewBox="0 0 375 374.999991" height="500" preserveAspectRatio="xMidYMid meet" version="1.0"><defs><clipPath id="73f40f3296"><path d="M 144 94 L 157 94 L 157 124 L 144 124 Z M 144 94 " clip-rule="nonzero"/></clipPath><clipPath id="0e9f610658"><path d="M 95.964844 99.816406 L 145.171875 94.441406 L 156.332031 196.582031 L 107.125 201.960938 Z M 95.964844 99.816406 " clip-rule="nonzero"/></clipPath><clipPath id="24c502fa6e"><path d="M 95.964844 99.816406 L 175.738281 91.101562 L 188.285156 205.917969 L 108.511719 214.632812 Z M 95.964844 99.816406 " clip-rule="nonzero"/></clipPath><clipPath id="c7c1f50a99"><path d="M 102 110 L 157 110 L 157 202 L 102 202 Z M 102 110 " clip-rule="nonzero"/></clipPath><clipPath id="a5a8148f81"><path d="M 95.964844 99.816406 L 145.171875 94.441406 L 156.332031 196.582031 L 107.125 201.960938 Z M 95.964844 99.816406 " clip-rule="nonzero"/></clipPath><clipPath id="5f59c87452"><path d="M 95.964844 99.816406 L 175.738281 91.101562 L 188.285156 205.917969 L 108.511719 214.632812 Z M 95.964844 99.816406 " clip-rule="nonzero"/></clipPath><clipPath id="8988ad4061"><path d="M 130 82.53125 L 245 82.53125 L 245 196 L 130 196 Z M 130 82.53125 " clip-rule="nonzero"/></clipPath><clipPath id="52d745a6ac"><path d="M 136 226 L 227 226 L 227 249.78125 L 136 249.78125 Z M 136 226 " clip-rule="nonzero"/></clipPath><clipPath id="0886b3bedd"><path d="M 107.367188 204 L 245 204 L 245 238 L 107.367188 238 Z M 107.367188 204 " clip-rule="nonzero"/></clipPath><clipPath id="778e5bbcdd"><path d="M 140.039062 91.324219 L 207.539062 91.324219 L 207.539062 128.824219 L 140.039062 128.824219 Z M 140.039062 91.324219 " clip-rule="nonzero"/></clipPath><clipPath id="da480adf1d"><path d="M 144 94 L 153 94 L 153 125 L 144 125 Z M 144 94 " clip-rule="nonzero"/></clipPath><clipPath id="934b517e54"><path d="M 95.964844 100.03125 L 143.679688 94.816406 L 152.640625 176.828125 L 104.925781 182.042969 Z M 95.964844 100.03125 " clip-rule="nonzero"/></clipPath><clipPath id="4ec2aab141"><path d="M 95.964844 100.03125 L 175.738281 91.3125 L 188.285156 206.128906 L 108.511719 214.847656 Z M 95.964844 100.03125 " clip-rule="nonzero"/></clipPath><clipPath id="b397607650"><path d="M 102 111 L 153 111 L 153 183 L 102 183 Z M 102 111 " clip-rule="nonzero"/></clipPath><clipPath id="a8e6111c8f"><path d="M 95.964844 100.03125 L 143.679688 94.816406 L 152.640625 176.828125 L 104.925781 182.042969 Z M 95.964844 100.03125 " clip-rule="nonzero"/></clipPath><clipPath id="b5cbdf42b3"><path d="M 95.964844 100.03125 L 175.738281 91.3125 L 188.285156 206.128906 L 108.511719 214.847656 Z M 95.964844 100.03125 " clip-rule="nonzero"/></clipPath></defs><g clip-path="url(#73f40f3296)"><g clip-path="url(#0e9f610658)"><g clip-path="url(#24c502fa6e)"><path fill="#234580" d="M 176.597656 99.46875 C 176.664062 99.683594 176.652344 99.914062 176.574219 100.160156 C 176.195312 101.34375 174.261719 102.800781 172.179688 104.085938 C 171.800781 104.316406 171.417969 104.542969 171.035156 104.761719 C 168.660156 106.125 166.425781 107.144531 166.425781 107.144531 L 166.410156 109.984375 L 167.515625 109.472656 C 167.976562 109.257812 168.519531 109.460938 168.730469 109.917969 C 168.941406 110.375 168.742188 110.917969 168.285156 111.132812 L 166.398438 112.003906 L 166.335938 123.453125 L 165.101562 123.929688 L 162.109375 116.371094 L 161.296875 114.320312 L 161.039062 114.4375 C 160.757812 114.570312 160.433594 114.550781 160.171875 114.394531 C 159.539062 114.011719 159.585938 113.074219 160.261719 112.761719 L 160.617188 112.597656 L 159.78125 110.488281 L 158.863281 110.945312 L 153.832031 113.429688 L 152.207031 118.808594 L 151.941406 119.203125 L 151.523438 119.832031 L 151.359375 119.277344 L 149.480469 112.78125 L 144.796875 107.914062 L 146.183594 107.714844 L 151.78125 109.546875 L 156.402344 107.097656 L 156.867188 106.851562 L 157.699219 106.40625 L 155.972656 104.15625 L 155.296875 104.46875 C 155.019531 104.597656 154.695312 104.582031 154.429688 104.421875 C 153.796875 104.039062 153.847656 103.101562 154.519531 102.789062 L 154.820312 102.652344 L 148.628906 94.582031 L 149.671875 93.949219 L 160.078125 100.277344 C 160.136719 100.234375 160.195312 100.191406 160.261719 100.160156 L 162.328125 99.207031 C 162.789062 98.996094 163.332031 99.195312 163.542969 99.652344 C 163.753906 100.113281 163.554688 100.65625 163.097656 100.867188 L 161.933594 101.40625 L 164.351562 102.875 C 164.351562 102.875 166.359375 101.8125 168.753906 100.769531 C 169.042969 100.644531 169.34375 100.515625 169.644531 100.390625 C 172.753906 99.101562 176.171875 98.058594 176.597656 99.46875 " fill-opacity="1" fill-rule="nonzero"/></g></g></g><g clip-path="url(#c7c1f50a99)"><g clip-path="url(#a5a8148f81)"><g clip-path="url(#5f59c87452)"><path fill="#234580" d="M 146.542969 118.296875 C 146.542969 118.296875 145.980469 118.582031 144.921875 119.125 C 143.84375 119.667969 142.363281 120.445312 140.460938 121.46875 C 138.5625 122.511719 136.25 123.777344 133.699219 125.347656 C 131.144531 126.914062 128.296875 128.734375 125.382812 130.925781 C 122.476562 133.117188 119.453125 135.644531 116.695312 138.652344 C 113.957031 141.671875 111.457031 145.144531 109.804688 149.160156 C 108.179688 153.09375 107.542969 157.640625 108.113281 162.171875 C 108.402344 164.441406 108.976562 166.710938 109.796875 168.917969 C 110.636719 171.121094 111.71875 173.261719 113 175.296875 C 115.554688 179.371094 118.914062 182.984375 122.644531 186.035156 C 123.578125 186.800781 124.539062 187.523438 125.515625 188.21875 L 125.699219 188.351562 C 125.644531 188.316406 125.710938 188.359375 125.710938 188.359375 L 125.757812 188.390625 L 125.855469 188.457031 L 126.242188 188.710938 L 127.011719 189.21875 C 127.523438 189.554688 128.035156 189.894531 128.546875 190.226562 C 129.566406 190.832031 130.582031 191.429688 131.585938 192.027344 C 132.632812 192.582031 133.675781 193.132812 134.707031 193.675781 C 138.886719 195.769531 143.117188 197.449219 147.199219 198.839844 C 147.710938 199.015625 148.21875 199.191406 148.722656 199.363281 C 149.230469 199.519531 149.738281 199.679688 150.238281 199.835938 C 151.242188 200.140625 152.222656 200.46875 153.207031 200.730469 C 154.1875 201.003906 155.152344 201.277344 156.097656 201.539062 C 157.050781 201.78125 157.988281 202.019531 158.902344 202.25 C 159.820312 202.492188 160.722656 202.691406 161.605469 202.890625 C 162.492188 203.089844 163.351562 203.296875 164.195312 203.472656 C 165.886719 203.8125 167.488281 204.171875 169.003906 204.4375 C 170.519531 204.71875 171.933594 204.988281 173.253906 205.199219 C 174.570312 205.417969 175.777344 205.628906 176.871094 205.789062 C 177.964844 205.953125 178.941406 206.101562 179.792969 206.230469 C 180.644531 206.347656 181.371094 206.449219 181.957031 206.527344 C 183.132812 206.691406 183.761719 206.777344 183.761719 206.777344 C 183.761719 206.777344 183.128906 206.722656 181.949219 206.621094 C 181.355469 206.570312 180.628906 206.507812 179.769531 206.433594 C 178.914062 206.351562 177.929688 206.253906 176.824219 206.140625 C 175.722656 206.039062 174.503906 205.890625 173.175781 205.738281 C 171.84375 205.597656 170.414062 205.398438 168.882812 205.195312 C 167.347656 205.003906 165.722656 204.730469 164.007812 204.476562 C 163.148438 204.34375 162.277344 204.175781 161.375 204.023438 C 160.480469 203.867188 159.558594 203.714844 158.625 203.519531 C 157.691406 203.332031 156.734375 203.140625 155.761719 202.949219 C 154.792969 202.730469 153.808594 202.507812 152.804688 202.28125 C 151.796875 202.070312 150.785156 201.789062 149.753906 201.53125 C 149.238281 201.398438 148.71875 201.265625 148.195312 201.132812 C 147.675781 200.984375 147.152344 200.832031 146.625 200.679688 C 142.410156 199.480469 138.003906 197.992188 133.585938 196.058594 C 132.492188 195.546875 131.390625 195.035156 130.277344 194.519531 C 129.179688 193.941406 128.074219 193.359375 126.960938 192.773438 C 126.433594 192.464844 125.902344 192.15625 125.375 191.84375 L 124.578125 191.375 L 124.179688 191.144531 L 123.945312 191 L 123.746094 190.871094 C 122.671875 190.1875 121.613281 189.472656 120.578125 188.710938 C 116.4375 185.660156 112.605469 181.964844 109.542969 177.605469 C 108.015625 175.429688 106.671875 173.097656 105.589844 170.636719 C 104.523438 168.167969 103.71875 165.578125 103.238281 162.921875 C 102.289062 157.601562 102.742188 152.082031 104.492188 147.140625 C 104.722656 146.511719 104.957031 145.832031 105.183594 145.328125 L 105.519531 144.515625 L 105.5625 144.414062 L 105.585938 144.363281 C 105.5625 144.410156 105.636719 144.242188 105.640625 144.242188 L 105.746094 144.027344 L 105.957031 143.605469 C 106.242188 143.039062 106.523438 142.476562 106.804688 141.917969 C 107.085938 141.359375 107.425781 140.84375 107.734375 140.308594 C 108.976562 138.171875 110.429688 136.273438 111.875 134.46875 C 114.824219 130.902344 118.003906 127.964844 121.027344 125.425781 C 124.0625 122.894531 126.988281 120.804688 129.605469 119.011719 C 132.21875 117.210938 134.5625 115.769531 136.484375 114.578125 C 138.425781 113.402344 139.984375 112.480469 140.996094 111.902344 C 142.023438 111.308594 142.570312 110.992188 142.570312 110.992188 L 146.542969 118.296875 " fill-opacity="1" fill-rule="nonzero"/></g></g></g><g clip-path="url(#8988ad4061)"><path fill="#f4bb3a" d="M 187.457031 82.605469 C 184.945312 82.605469 182.449219 82.769531 179.960938 83.101562 C 177.476562 83.433594 175.023438 83.929688 172.601562 84.589844 C 170.179688 85.246094 167.816406 86.0625 165.503906 87.035156 C 163.191406 88.007812 160.953125 89.132812 158.789062 90.402344 C 156.628906 91.675781 154.558594 93.082031 152.585938 94.628906 C 150.609375 96.175781 148.746094 97.847656 146.992188 99.640625 C 145.238281 101.4375 143.613281 103.339844 142.113281 105.351562 C 140.617188 107.363281 139.253906 109.464844 138.035156 111.65625 C 136.816406 113.847656 135.746094 116.113281 134.828125 118.445312 C 133.910156 120.78125 133.152344 123.164062 132.550781 125.601562 C 131.949219 128.035156 131.511719 130.5 131.238281 132.996094 C 130.964844 135.488281 130.859375 137.988281 130.917969 140.496094 C 130.980469 143.003906 131.207031 145.5 131.597656 147.976562 C 131.988281 150.453125 132.542969 152.894531 133.261719 155.300781 C 133.976562 157.703125 134.851562 160.050781 135.878906 162.335938 C 136.90625 164.625 138.082031 166.835938 139.40625 168.964844 L 161.660156 156.035156 L 191.398438 184.910156 L 191.398438 195.558594 C 193.207031 195.4375 195.007812 195.226562 196.796875 194.933594 C 198.585938 194.636719 200.355469 194.257812 202.109375 193.789062 C 203.863281 193.324219 205.585938 192.777344 207.289062 192.144531 C 208.988281 191.511719 210.652344 190.800781 212.285156 190.007812 C 213.914062 189.21875 215.503906 188.347656 217.054688 187.402344 C 218.601562 186.457031 220.101562 185.441406 221.550781 184.351562 C 223 183.261719 224.394531 182.105469 225.734375 180.882812 C 227.070312 179.660156 228.347656 178.375 229.5625 177.03125 C 230.777344 175.683594 231.925781 174.28125 233.007812 172.824219 C 234.085938 171.371094 235.09375 169.863281 236.03125 168.3125 C 236.964844 166.757812 237.824219 165.164062 238.605469 163.527344 C 239.386719 161.890625 240.089844 160.21875 240.710938 158.515625 C 241.332031 156.8125 241.871094 155.082031 242.324219 153.328125 C 242.777344 151.570312 243.148438 149.800781 243.433594 148.007812 C 243.71875 146.21875 243.914062 144.417969 244.027344 142.605469 C 244.136719 140.796875 244.160156 138.984375 244.097656 137.171875 C 244.035156 135.359375 243.882812 133.554688 243.648438 131.757812 C 243.410156 129.960938 243.085938 128.175781 242.679688 126.410156 C 242.269531 124.644531 241.777344 122.902344 241.203125 121.179688 C 240.625 119.460938 239.96875 117.773438 239.230469 116.117188 C 238.492188 114.460938 237.675781 112.84375 236.78125 111.265625 C 235.886719 109.6875 234.917969 108.160156 233.878906 106.671875 C 232.835938 105.1875 231.726562 103.757812 230.546875 102.378906 C 229.367188 101.003906 228.125 99.683594 226.820312 98.425781 C 225.511719 97.167969 224.148438 95.976562 222.730469 94.847656 C 221.308594 93.722656 219.835938 92.664062 218.3125 91.679688 C 216.792969 90.695312 215.226562 89.785156 213.617188 88.949219 C 212.007812 88.117188 210.359375 87.359375 208.675781 86.683594 C 206.996094 86.007812 205.285156 85.414062 203.542969 84.902344 C 201.804688 84.390625 200.042969 83.964844 198.261719 83.621094 C 196.480469 83.277344 194.6875 83.023438 192.882812 82.851562 C 191.078125 82.683594 189.269531 82.601562 187.457031 82.605469 Z M 187.457031 82.605469 " fill-opacity="1" fill-rule="nonzero"/></g><g clip-path="url(#52d745a6ac)"><path fill="#92d7e7" d="M 221.007812 239.867188 L 220.320312 240.136719 L 219.621094 240.394531 C 219.160156 240.558594 218.703125 240.761719 218.234375 240.890625 C 217.761719 241.019531 217.304688 241.207031 216.84375 241.355469 L 215.441406 241.777344 C 214.976562 241.917969 214.503906 242.035156 214.035156 242.167969 C 213.804688 242.230469 213.574219 242.300781 213.339844 242.351562 L 212.628906 242.515625 C 211.695312 242.746094 210.75 242.929688 209.8125 243.117188 C 207.921875 243.449219 206.03125 243.695312 204.140625 243.851562 L 202.722656 243.9375 C 202.25 243.976562 201.773438 243.980469 201.300781 243.992188 C 200.828125 244.003906 200.355469 244.027344 199.882812 244.019531 L 198.464844 244.019531 C 196.585938 243.976562 194.710938 243.84375 192.84375 243.609375 C 189.109375 243.140625 185.453125 242.3125 181.878906 241.121094 C 180.984375 240.824219 180.101562 240.511719 179.222656 240.171875 C 178.785156 239.996094 178.34375 239.839844 177.910156 239.652344 C 177.476562 239.464844 177.046875 239.285156 176.59375 239.09375 C 174.800781 238.324219 173.011719 237.523438 171.210938 236.703125 C 167.613281 235.074219 163.988281 233.378906 160.25 231.816406 C 159.320312 231.417969 158.367188 231.050781 157.425781 230.671875 C 156.488281 230.292969 155.507812 229.9375 154.550781 229.605469 C 154.070312 229.4375 153.578125 229.28125 153.082031 229.117188 C 152.585938 228.957031 152.113281 228.789062 151.613281 228.644531 L 150.128906 228.222656 L 149.394531 228.011719 C 149.148438 227.941406 148.894531 227.886719 148.660156 227.828125 C 147.652344 227.589844 146.65625 227.339844 145.636719 227.175781 C 145.125 227.089844 144.625 226.992188 144.113281 226.914062 C 143.601562 226.832031 143.089844 226.789062 142.578125 226.730469 C 141.566406 226.585938 140.527344 226.574219 139.511719 226.523438 C 139.003906 226.492188 138.488281 226.523438 137.976562 226.523438 C 137.46875 226.523438 136.957031 226.5625 136.453125 226.59375 C 136.9375 226.75 137.425781 226.90625 137.90625 227.050781 C 138.386719 227.199219 138.867188 227.324219 139.335938 227.511719 L 140.75 228.007812 L 141.097656 228.132812 C 141.214844 228.167969 141.335938 228.210938 141.464844 228.261719 L 142.160156 228.535156 C 142.621094 228.71875 143.078125 228.902344 143.535156 229.078125 C 143.988281 229.253906 144.441406 229.480469 144.886719 229.675781 C 145.335938 229.875 145.792969 230.042969 146.234375 230.277344 L 147.5625 230.914062 C 147.78125 231.023438 148.003906 231.121094 148.226562 231.230469 L 148.878906 231.5625 L 150.191406 232.234375 C 151.054688 232.699219 151.925781 233.152344 152.785156 233.625 C 154.507812 234.585938 156.222656 235.546875 157.945312 236.542969 C 161.378906 238.519531 164.851562 240.523438 168.4375 242.417969 L 169.109375 242.785156 L 169.792969 243.128906 L 171.152344 243.820312 C 171.605469 244.054688 172.066406 244.269531 172.53125 244.488281 L 173.914062 245.148438 C 174.367188 245.367188 174.871094 245.578125 175.351562 245.792969 C 175.832031 246.003906 176.328125 246.203125 176.820312 246.40625 C 177.804688 246.792969 178.800781 247.15625 179.808594 247.507812 C 183.863281 248.855469 188.023438 249.671875 192.289062 249.953125 C 194.414062 250.097656 196.535156 250.097656 198.65625 249.953125 L 200.234375 249.820312 C 200.5 249.800781 200.761719 249.765625 201.023438 249.730469 L 201.8125 249.628906 C 202.859375 249.507812 203.894531 249.292969 204.933594 249.105469 C 206.988281 248.65625 209 248.070312 210.976562 247.351562 C 211.953125 246.984375 212.933594 246.617188 213.886719 246.175781 L 214.597656 245.855469 C 214.835938 245.75 215.070312 245.625 215.304688 245.515625 L 216 245.148438 C 216.230469 245.035156 216.46875 244.925781 216.695312 244.78125 C 218.519531 243.804688 220.261719 242.695312 221.917969 241.457031 C 223.566406 240.242188 225.105469 238.894531 226.527344 237.421875 C 224.679688 238.324219 222.851562 239.136719 221.007812 239.867188 Z M 221.007812 239.867188 " fill-opacity="1" fill-rule="nonzero"/></g><path fill="#2d6d5c" d="M 205 179.304688 L 162.046875 147.882812 C 161.925781 147.796875 161.792969 147.753906 161.648438 147.753906 C 161.5 147.753906 161.367188 147.796875 161.25 147.882812 L 118.292969 179.304688 C 118.171875 179.390625 118.089844 179.503906 118.046875 179.644531 C 118 179.78125 118 179.921875 118.046875 180.0625 C 118.09375 180.199219 118.175781 180.3125 118.292969 180.398438 C 118.414062 180.484375 118.546875 180.527344 118.691406 180.527344 L 124.75 180.527344 C 124.9375 180.527344 125.097656 180.589844 125.230469 180.722656 C 125.363281 180.855469 125.429688 181.015625 125.429688 181.203125 L 125.429688 203.527344 C 125.429688 203.640625 125.453125 203.75 125.507812 203.847656 C 125.558594 203.949219 125.632812 204.03125 125.726562 204.09375 C 125.824219 204.15625 125.925781 204.195312 126.039062 204.203125 C 126.152344 204.214844 126.261719 204.199219 126.367188 204.152344 C 127.066406 203.851562 127.773438 203.566406 128.484375 203.300781 C 133.921875 201.277344 139.542969 200.273438 145.347656 200.289062 C 156.902344 200.289062 169.265625 204.214844 182.113281 211.960938 C 182.695312 212.292969 183.277344 212.621094 183.859375 212.945312 C 188.0625 215.109375 192.46875 216.722656 197.078125 217.777344 C 197.179688 217.800781 197.277344 217.796875 197.378906 217.773438 C 197.476562 217.75 197.566406 217.707031 197.644531 217.644531 C 197.726562 217.578125 197.785156 217.5 197.832031 217.410156 C 197.875 217.316406 197.898438 217.21875 197.898438 217.117188 L 197.898438 181.203125 C 197.898438 181.015625 197.964844 180.855469 198.09375 180.726562 C 198.226562 180.59375 198.386719 180.527344 198.574219 180.527344 L 204.613281 180.527344 C 204.9375 180.523438 205.148438 180.367188 205.25 180.054688 C 205.347656 179.746094 205.265625 179.496094 205 179.304688 Z M 159.734375 187.433594 C 159.734375 187.621094 159.667969 187.777344 159.535156 187.910156 C 159.40625 188.042969 159.246094 188.109375 159.058594 188.109375 L 154.007812 188.109375 C 153.820312 188.109375 153.664062 188.042969 153.53125 187.910156 C 153.398438 187.777344 153.332031 187.621094 153.332031 187.433594 L 153.332031 182.378906 C 153.332031 182.191406 153.398438 182.03125 153.53125 181.898438 C 153.664062 181.769531 153.820312 181.703125 154.007812 181.703125 L 159.058594 181.703125 C 159.246094 181.703125 159.40625 181.769531 159.535156 181.902344 C 159.667969 182.03125 159.734375 182.191406 159.734375 182.378906 Z M 159.734375 178.066406 C 159.734375 178.253906 159.667969 178.414062 159.535156 178.542969 C 159.40625 178.675781 159.246094 178.742188 159.058594 178.742188 L 154.007812 178.742188 C 153.820312 178.742188 153.660156 178.675781 153.527344 178.542969 C 153.398438 178.410156 153.332031 178.25 153.332031 178.0625 L 153.332031 173.011719 C 153.332031 172.824219 153.398438 172.664062 153.53125 172.535156 C 153.664062 172.402344 153.820312 172.335938 154.007812 172.335938 L 159.058594 172.335938 C 159.246094 172.335938 159.40625 172.402344 159.535156 172.535156 C 159.667969 172.667969 159.734375 172.824219 159.734375 173.011719 Z M 169.988281 187.433594 C 169.984375 187.621094 169.917969 187.777344 169.785156 187.910156 C 169.652344 188.042969 169.492188 188.109375 169.308594 188.109375 L 164.253906 188.109375 C 164.070312 188.109375 163.910156 188.042969 163.777344 187.910156 C 163.648438 187.777344 163.582031 187.621094 163.578125 187.433594 L 163.578125 182.378906 C 163.582031 182.191406 163.648438 182.03125 163.777344 181.902344 C 163.910156 181.769531 164.070312 181.703125 164.253906 181.703125 L 169.308594 181.703125 C 169.492188 181.703125 169.652344 181.769531 169.785156 181.898438 C 169.917969 182.03125 169.984375 182.191406 169.988281 182.378906 Z M 169.988281 178.066406 C 169.984375 178.253906 169.917969 178.414062 169.785156 178.546875 C 169.652344 178.675781 169.492188 178.742188 169.308594 178.742188 L 164.253906 178.742188 C 164.070312 178.742188 163.910156 178.675781 163.777344 178.542969 C 163.648438 178.414062 163.582031 178.253906 163.578125 178.066406 L 163.578125 173.011719 C 163.582031 172.824219 163.648438 172.667969 163.777344 172.535156 C 163.910156 172.402344 164.070312 172.335938 164.253906 172.335938 L 169.308594 172.335938 C 169.492188 172.335938 169.652344 172.402344 169.785156 172.535156 C 169.917969 172.664062 169.984375 172.824219 169.988281 173.011719 Z M 169.988281 178.066406 " fill-opacity="1" fill-rule="nonzero"/><path fill="#2d6d5c" d="M 228.402344 214.234375 C 225.601562 215.546875 222.707031 216.597656 219.714844 217.390625 C 217.78125 217.894531 215.824219 218.28125 213.84375 218.546875 C 212.566406 173.980469 237.269531 139.144531 237.269531 139.144531 C 224.996094 167.34375 226.667969 199.324219 228.402344 214.234375 Z M 228.402344 214.234375 " fill-opacity="1" fill-rule="nonzero"/><g clip-path="url(#0886b3bedd)"><path fill="#00bbd6" d="M 239.453125 212.386719 C 233.753906 216.484375 227.511719 219.441406 220.730469 221.257812 C 210.582031 223.925781 197.675781 224.125 183.144531 217.066406 C 182.042969 216.523438 180.941406 215.929688 179.878906 215.292969 C 158.289062 202.324219 141.695312 202.621094 129.882812 207.050781 C 123.800781 209.367188 118.445312 212.816406 113.816406 217.390625 C 109.597656 221.515625 107.492188 225.058594 107.4375 225.15625 C 109.101562 224.179688 110.714844 223.320312 112.296875 222.527344 C 119.941406 218.773438 126.691406 217.328125 132.964844 217.390625 C 148.050781 217.550781 160.367188 226.496094 175.667969 233.285156 C 179.195312 234.875 182.851562 236.066406 186.640625 236.855469 C 190.425781 237.644531 194.253906 238.015625 198.125 237.972656 C 213.058594 237.703125 224.125 231.140625 231.644531 224.292969 C 234.8125 221.402344 237.652344 218.222656 240.167969 214.75 C 241.601562 212.824219 242.886719 210.800781 244.019531 208.683594 C 242.585938 210.027344 241.066406 211.261719 239.453125 212.386719 Z M 239.453125 212.386719 " fill-opacity="1" fill-rule="nonzero"/></g><path fill="#2d6d5c" d="M 235.941406 157.285156 C 235.941406 157.285156 240.789062 175.21875 236.582031 194.429688 C 236.585938 194.429688 257.8125 180.710938 235.941406 157.285156 Z M 235.941406 157.285156 " fill-opacity="1" fill-rule="nonzero"/><path fill="#2d6d5c" d="M 236.765625 151.105469 C 236.765625 151.105469 250.113281 164.023438 256.335938 182.679688 C 256.335938 182.683594 267.542969 160.027344 236.765625 151.105469 Z M 236.765625 151.105469 " fill-opacity="1" fill-rule="nonzero"/><path fill="#2d6d5c" d="M 238.34375 146.371094 C 238.34375 146.371094 251.292969 151.699219 260.855469 163.027344 C 260.855469 163.027344 262.375 144.035156 238.34375 146.371094 Z M 238.34375 146.371094 " fill-opacity="1" fill-rule="nonzero"/><path fill="#2d6d5c" d="M 238.984375 142.449219 C 238.984375 142.449219 250.816406 141.523438 262.386719 146.4375 C 262.375 146.429688 256.273438 131.480469 238.984375 142.449219 Z M 238.984375 142.449219 " fill-opacity="1" fill-rule="nonzero"/><path fill="#2d6d5c" d="M 228.882812 149.203125 C 228.882812 149.203125 210.46875 151.617188 194.351562 162.890625 C 194.351562 162.890625 198.859375 138.019531 228.882812 149.203125 Z M 228.882812 149.203125 " fill-opacity="1" fill-rule="nonzero"/><path fill="#2d6d5c" d="M 229.546875 144.523438 C 229.546875 144.523438 212.488281 137.179688 192.871094 138.59375 C 192.871094 138.59375 209.480469 119.542969 229.546875 144.523438 Z M 229.546875 144.523438 " fill-opacity="1" fill-rule="nonzero"/><path fill="#2d6d5c" d="M 231.796875 140.945312 C 231.796875 140.945312 221.902344 131.03125 207.765625 126.5625 C 207.765625 126.5625 224.710938 117.851562 231.796875 140.945312 Z M 231.796875 140.945312 " fill-opacity="1" fill-rule="nonzero"/><path fill="#2d6d5c" d="M 234.695312 138.085938 C 234.695312 138.085938 231.003906 126.804688 222.023438 118.011719 C 222.023438 118.011719 238.167969 117.910156 234.695312 138.085938 Z M 234.695312 138.085938 " fill-opacity="1" fill-rule="nonzero"/><g clip-path="url(#778e5bbcdd)"><path fill="#234580" d="M 202.957031 102.949219 C 204.785156 103.683594 207.257812 103.683594 207.257812 105.699219 C 207.257812 110.457031 187.574219 113.296875 186.839844 113.296875 L 180.339844 127.488281 C 179.882812 128.585938 179.242188 128.863281 178.507812 128.953125 L 176.402344 129.136719 L 176.402344 119.25 L 172.28125 115.585938 C 171.824219 115.585938 169.167969 116.042969 163.675781 116.042969 C 157.265625 116.042969 155.527344 115.769531 155.066406 115.769531 L 154.335938 118.882812 C 154.242188 119.433594 152.6875 119.707031 152.414062 119.339844 L 149.117188 114.945312 C 148.476562 114.945312 146.828125 114.761719 146.828125 114.210938 C 146.828125 113.480469 147.101562 113.207031 147.46875 113.023438 L 140.511719 106.519531 C 140.054688 106.066406 141.703125 105.148438 143.164062 105.878906 L 149.941406 109.082031 L 149.484375 103.773438 L 151.039062 103.5 C 151.589844 103.410156 152.78125 104.234375 153.144531 104.597656 L 157.910156 109.726562 L 166.148438 108.167969 L 162.300781 104.234375 L 144.265625 92.878906 L 145.820312 91.6875 C 145.820312 91.6875 146.1875 91.324219 147.46875 91.324219 L 183.269531 105.242188 L 194.441406 103.136719 C 194.898438 103.042969 196.820312 101.945312 199.109375 101.945312 C 201.582031 101.945312 201.582031 102.402344 202.957031 102.949219 " fill-opacity="1" fill-rule="nonzero"/></g><g clip-path="url(#da480adf1d)"><g clip-path="url(#934b517e54)"><g clip-path="url(#4ec2aab141)"><path fill="#234580" d="M 176.597656 99.679688 C 176.664062 99.894531 176.652344 100.125 176.574219 100.371094 C 176.195312 101.554688 174.261719 103.015625 172.179688 104.296875 C 171.800781 104.527344 171.417969 104.753906 171.035156 104.972656 C 168.660156 106.335938 166.425781 107.355469 166.425781 107.355469 L 166.410156 110.195312 L 167.515625 109.683594 C 167.976562 109.472656 168.519531 109.671875 168.730469 110.128906 C 168.941406 110.585938 168.742188 111.128906 168.285156 111.34375 L 166.398438 112.214844 L 166.335938 123.664062 L 165.101562 124.140625 L 162.109375 116.582031 L 161.296875 114.53125 L 161.039062 114.652344 C 160.757812 114.78125 160.433594 114.761719 160.171875 114.605469 C 159.539062 114.222656 159.585938 113.285156 160.261719 112.972656 L 160.613281 112.808594 L 159.78125 110.703125 L 158.863281 111.15625 L 153.832031 113.640625 L 152.207031 119.019531 L 151.941406 119.414062 L 151.523438 120.046875 L 151.359375 119.488281 L 149.480469 112.992188 L 144.796875 108.125 L 146.179688 107.925781 L 151.78125 109.757812 L 156.402344 107.308594 L 156.867188 107.0625 L 157.699219 106.617188 L 155.972656 104.367188 L 155.296875 104.679688 C 155.019531 104.808594 154.695312 104.792969 154.429688 104.632812 C 153.796875 104.25 153.847656 103.3125 154.519531 103.003906 L 154.820312 102.863281 L 148.628906 94.792969 L 149.671875 94.160156 L 160.078125 100.488281 C 160.136719 100.445312 160.195312 100.402344 160.261719 100.371094 L 162.328125 99.417969 C 162.789062 99.207031 163.332031 99.40625 163.542969 99.863281 C 163.753906 100.324219 163.554688 100.867188 163.097656 101.078125 L 161.929688 101.617188 L 164.351562 103.085938 C 164.351562 103.085938 166.359375 102.023438 168.753906 100.980469 C 169.042969 100.855469 169.34375 100.726562 169.644531 100.601562 C 172.753906 99.3125 176.171875 98.269531 176.597656 99.679688 " fill-opacity="1" fill-rule="nonzero"/></g></g></g><g clip-path="url(#b397607650)"><g clip-path="url(#a8e6111c8f)"><g clip-path="url(#b5cbdf42b3)"><path fill="#234580" d="M 146.542969 118.507812 C 146.542969 118.507812 145.980469 118.796875 144.921875 119.335938 C 143.84375 119.878906 142.363281 120.65625 140.460938 121.679688 C 138.5625 122.722656 136.25 123.988281 133.699219 125.558594 C 131.144531 127.125 128.296875 128.945312 125.382812 131.136719 C 122.476562 133.328125 119.453125 135.855469 116.695312 138.867188 C 113.953125 141.882812 111.457031 145.355469 109.804688 149.371094 C 108.179688 153.304688 107.542969 157.851562 108.109375 162.382812 C 108.402344 164.652344 108.976562 166.921875 109.796875 169.128906 C 110.636719 171.332031 111.71875 173.472656 113 175.507812 C 115.554688 179.582031 118.914062 183.195312 122.644531 186.246094 C 123.578125 187.011719 124.539062 187.734375 125.515625 188.429688 L 125.699219 188.5625 C 125.644531 188.527344 125.710938 188.570312 125.710938 188.570312 L 125.757812 188.601562 L 125.855469 188.667969 L 126.242188 188.921875 L 127.011719 189.429688 C 127.523438 189.765625 128.035156 190.105469 128.546875 190.441406 C 129.566406 191.042969 130.578125 191.640625 131.585938 192.238281 C 132.632812 192.792969 133.675781 193.34375 134.707031 193.886719 C 138.886719 195.980469 143.117188 197.660156 147.199219 199.054688 C 147.710938 199.226562 148.21875 199.402344 148.722656 199.574219 C 149.230469 199.734375 149.738281 199.890625 150.238281 200.046875 C 151.242188 200.351562 152.222656 200.679688 153.207031 200.941406 C 154.1875 201.21875 155.152344 201.488281 156.097656 201.753906 C 157.050781 201.992188 157.988281 202.230469 158.902344 202.460938 C 159.820312 202.703125 160.722656 202.902344 161.605469 203.101562 C 162.488281 203.300781 163.351562 203.507812 164.195312 203.683594 C 165.886719 204.023438 167.488281 204.382812 169.003906 204.648438 C 170.519531 204.929688 171.933594 205.199219 173.253906 205.410156 C 174.570312 205.628906 175.773438 205.84375 176.871094 206 C 177.964844 206.164062 178.941406 206.3125 179.792969 206.441406 C 180.644531 206.558594 181.371094 206.660156 181.957031 206.738281 C 183.132812 206.902344 183.761719 206.988281 183.761719 206.988281 C 183.761719 206.988281 183.128906 206.933594 181.949219 206.832031 C 181.355469 206.78125 180.628906 206.71875 179.769531 206.648438 C 178.914062 206.5625 177.929688 206.464844 176.824219 206.355469 C 175.722656 206.253906 174.503906 206.101562 173.175781 205.949219 C 171.84375 205.808594 170.414062 205.609375 168.882812 205.40625 C 167.347656 205.21875 165.722656 204.941406 164.007812 204.6875 C 163.148438 204.554688 162.277344 204.390625 161.375 204.234375 C 160.480469 204.078125 159.558594 203.925781 158.625 203.730469 C 157.691406 203.542969 156.734375 203.355469 155.761719 203.160156 C 154.792969 202.941406 153.808594 202.71875 152.800781 202.492188 C 151.796875 202.28125 150.785156 202 149.753906 201.742188 C 149.238281 201.609375 148.71875 201.476562 148.195312 201.34375 C 147.675781 201.195312 147.152344 201.042969 146.625 200.890625 C 142.410156 199.691406 138.003906 198.203125 133.585938 196.269531 C 132.492188 195.757812 131.390625 195.246094 130.277344 194.730469 C 129.179688 194.152344 128.074219 193.570312 126.957031 192.984375 C 126.433594 192.675781 125.902344 192.367188 125.375 192.054688 L 124.578125 191.589844 L 124.179688 191.355469 L 123.945312 191.214844 L 123.746094 191.082031 C 122.671875 190.402344 121.613281 189.683594 120.578125 188.921875 C 116.4375 185.875 112.605469 182.175781 109.542969 177.816406 C 108.015625 175.640625 106.671875 173.308594 105.589844 170.847656 C 104.523438 168.378906 103.71875 165.789062 103.238281 163.132812 C 102.289062 157.8125 102.742188 152.292969 104.492188 147.351562 C 104.722656 146.722656 104.957031 146.042969 105.179688 145.539062 L 105.519531 144.726562 L 105.5625 144.625 L 105.585938 144.574219 C 105.5625 144.621094 105.636719 144.457031 105.640625 144.453125 L 105.746094 144.242188 L 105.957031 143.816406 C 106.242188 143.25 106.523438 142.6875 106.804688 142.128906 C 107.085938 141.570312 107.425781 141.054688 107.734375 140.519531 C 108.976562 138.386719 110.429688 136.484375 111.875 134.679688 C 114.824219 131.113281 118.003906 128.175781 121.027344 125.636719 C 124.0625 123.105469 126.988281 121.019531 129.605469 119.222656 C 132.21875 117.421875 134.5625 115.980469 136.484375 114.789062 C 138.425781 113.613281 139.984375 112.691406 140.996094 112.113281 C 142.023438 111.519531 142.570312 111.203125 142.570312 111.203125 L 146.542969 118.507812 " fill-opacity="1" fill-rule="nonzero"/></g></g></g></svg>