<svg xmlns="http://www.w3.org/2000/svg" xmlns:xlink="http://www.w3.org/1999/xlink" width="500" zoomAndPan="magnify" viewBox="0 0 375 374.999991" height="500" preserveAspectRatio="xMidYMid meet" version="1.0"><defs><clipPath id="7ae4289351"><path d="M 98 305 L 276 305 L 276 351.421875 L 98 351.421875 Z M 98 305 " clip-rule="nonzero"/></clipPath><clipPath id="14b82c1ddf"><path d="M 41.320312 262 L 310 262 L 310 329 L 41.320312 329 Z M 41.320312 262 " clip-rule="nonzero"/></clipPath><clipPath id="dae39fd09e"><path d="M 106 40.207031 L 238 40.207031 L 238 113.859375 L 106 113.859375 Z M 106 40.207031 " clip-rule="nonzero"/></clipPath><clipPath id="b9248c74cf"><path d="M 114 47 L 131 47 L 131 105 L 114 105 Z M 114 47 " clip-rule="nonzero"/></clipPath><clipPath id="bb1d9b48a6"><path d="M 18.921875 57.304688 L 112.636719 47.0625 L 130.238281 208.136719 L 36.523438 218.378906 Z M 18.921875 57.304688 " clip-rule="nonzero"/></clipPath><clipPath id="dee6d2261d"><path d="M 18.921875 57.304688 L 175.601562 40.183594 L 200.242188 265.6875 L 43.5625 282.808594 Z M 18.921875 57.304688 " clip-rule="nonzero"/></clipPath><clipPath id="ddb3b79452"><path d="M 32 79 L 131 79 L 131 219 L 32 219 Z M 32 79 " clip-rule="nonzero"/></clipPath><clipPath id="5035bf6cbd"><path d="M 18.921875 57.304688 L 112.636719 47.0625 L 130.238281 208.136719 L 36.523438 218.378906 Z M 18.921875 57.304688 " clip-rule="nonzero"/></clipPath><clipPath id="f0e76eb1e7"><path d="M 18.921875 57.304688 L 175.601562 40.183594 L 200.242188 265.6875 L 43.5625 282.808594 Z M 18.921875 57.304688 " clip-rule="nonzero"/></clipPath></defs><path fill="#f4bb3a" d="M 198.613281 23.082031 C 196.152344 23.082031 193.695312 23.164062 191.238281 23.328125 C 188.78125 23.488281 186.335938 23.734375 183.894531 24.058594 C 181.457031 24.386719 179.03125 24.792969 176.621094 25.277344 C 174.207031 25.765625 171.8125 26.332031 169.441406 26.976562 C 167.066406 27.625 164.714844 28.347656 162.386719 29.148438 C 160.0625 29.953125 157.765625 30.832031 155.496094 31.785156 C 153.230469 32.742188 150.996094 33.769531 148.796875 34.871094 C 146.597656 35.976562 144.4375 37.152344 142.316406 38.398438 C 140.195312 39.644531 138.117188 40.960938 136.082031 42.347656 C 134.046875 43.730469 132.0625 45.183594 130.125 46.699219 C 128.1875 48.21875 126.300781 49.796875 124.46875 51.441406 C 122.636719 53.082031 120.863281 54.785156 119.144531 56.542969 C 117.421875 58.304688 115.765625 60.121094 114.164062 61.992188 C 112.566406 63.863281 111.03125 65.785156 109.5625 67.757812 C 108.089844 69.730469 106.6875 71.75 105.351562 73.816406 C 104.015625 75.882812 102.746094 77.988281 101.550781 80.140625 C 100.355469 82.289062 99.230469 84.480469 98.179688 86.703125 C 97.128906 88.929688 96.152344 91.1875 95.253906 93.476562 C 94.351562 95.765625 93.527344 98.082031 92.78125 100.429688 C 92.035156 102.773438 91.367188 105.140625 90.777344 107.527344 C 90.1875 109.917969 89.675781 112.324219 89.25 114.746094 C 88.820312 117.171875 88.46875 119.605469 88.203125 122.050781 C 87.933594 124.496094 87.75 126.949219 87.644531 129.40625 C 87.539062 131.867188 87.515625 134.324219 87.574219 136.785156 C 87.632812 139.246094 87.773438 141.699219 87.996094 144.152344 C 88.21875 146.601562 88.523438 149.042969 88.90625 151.472656 C 89.289062 153.90625 89.753906 156.320312 90.300781 158.71875 C 90.84375 161.117188 91.46875 163.496094 92.171875 165.855469 C 92.875 168.214844 93.65625 170.546875 94.511719 172.851562 C 95.371094 175.160156 96.304688 177.433594 97.3125 179.679688 C 98.324219 181.921875 99.40625 184.132812 100.5625 186.304688 C 101.71875 188.476562 102.945312 190.605469 104.242188 192.699219 L 147.949219 167.300781 L 206.355469 224.015625 L 206.355469 244.925781 C 208.132812 244.808594 209.90625 244.644531 211.671875 244.4375 C 213.441406 244.234375 215.203125 243.988281 216.957031 243.695312 C 218.714844 243.40625 220.460938 243.074219 222.203125 242.703125 C 223.941406 242.328125 225.671875 241.914062 227.394531 241.457031 C 229.113281 241 230.820312 240.5 232.515625 239.960938 C 234.214844 239.421875 235.894531 238.84375 237.5625 238.222656 C 239.230469 237.601562 240.882812 236.941406 242.519531 236.242188 C 244.15625 235.542969 245.777344 234.804688 247.378906 234.027344 C 248.980469 233.25 250.558594 232.4375 252.121094 231.582031 C 253.683594 230.730469 255.222656 229.839844 256.742188 228.910156 C 258.261719 227.984375 259.757812 227.019531 261.230469 226.019531 C 262.703125 225.023438 264.152344 223.988281 265.574219 222.917969 C 266.996094 221.851562 268.394531 220.746094 269.765625 219.613281 C 271.132812 218.476562 272.476562 217.308594 273.789062 216.105469 C 275.105469 214.90625 276.386719 213.675781 277.644531 212.410156 C 278.898438 211.148438 280.121094 209.859375 281.3125 208.535156 C 282.507812 207.214844 283.667969 205.867188 284.792969 204.488281 C 285.921875 203.113281 287.015625 201.710938 288.074219 200.28125 C 289.136719 198.851562 290.160156 197.394531 291.152344 195.917969 C 292.140625 194.4375 293.09375 192.9375 294.011719 191.410156 C 294.933594 189.886719 295.8125 188.339844 296.65625 186.773438 C 297.5 185.207031 298.304688 183.621094 299.074219 182.015625 C 299.839844 180.410156 300.570312 178.785156 301.257812 177.144531 C 301.949219 175.503906 302.597656 173.847656 303.207031 172.175781 C 303.816406 170.503906 304.386719 168.816406 304.914062 167.117188 C 305.441406 165.417969 305.929688 163.707031 306.378906 161.984375 C 306.824219 160.261719 307.226562 158.527344 307.589844 156.785156 C 307.953125 155.042969 308.277344 153.292969 308.554688 151.535156 C 308.832031 149.777344 309.070312 148.015625 309.265625 146.246094 C 309.457031 144.476562 309.609375 142.703125 309.71875 140.929688 C 309.828125 139.152344 309.894531 137.375 309.917969 135.59375 C 309.941406 133.8125 309.921875 132.035156 309.859375 130.257812 C 309.796875 128.476562 309.691406 126.703125 309.546875 124.925781 C 309.398438 123.152344 309.207031 121.386719 308.976562 119.621094 C 308.742188 117.855469 308.46875 116.097656 308.152344 114.347656 C 307.832031 112.59375 307.476562 110.851562 307.074219 109.117188 C 306.671875 107.382812 306.230469 105.660156 305.746094 103.949219 C 305.261719 102.234375 304.738281 100.535156 304.171875 98.847656 C 303.609375 97.160156 303.003906 95.488281 302.355469 93.828125 C 301.710938 92.171875 301.023438 90.527344 300.300781 88.902344 C 299.574219 87.277344 298.8125 85.671875 298.007812 84.082031 C 297.207031 82.492188 296.367188 80.925781 295.488281 79.375 C 294.613281 77.828125 293.699219 76.300781 292.746094 74.796875 C 291.796875 73.292969 290.808594 71.8125 289.789062 70.355469 C 288.765625 68.898438 287.707031 67.464844 286.617188 66.058594 C 285.527344 64.652344 284.402344 63.273438 283.246094 61.921875 C 282.089844 60.570312 280.898438 59.246094 279.679688 57.953125 C 278.457031 56.65625 277.207031 55.390625 275.925781 54.15625 C 274.640625 52.921875 273.332031 51.71875 271.992188 50.546875 C 270.652344 49.375 269.285156 48.238281 267.890625 47.128906 C 266.496094 46.023438 265.078125 44.953125 263.628906 43.914062 C 262.183594 42.875 260.714844 41.875 259.222656 40.90625 C 257.726562 39.941406 256.210938 39.007812 254.671875 38.117188 C 253.132812 37.222656 251.574219 36.363281 249.992188 35.546875 C 248.414062 34.726562 246.8125 33.945312 245.195312 33.203125 C 243.578125 32.460938 241.945312 31.757812 240.292969 31.09375 C 238.640625 30.429688 236.976562 29.804688 235.292969 29.222656 C 233.613281 28.640625 231.917969 28.097656 230.210938 27.59375 C 228.503906 27.09375 226.785156 26.632812 225.054688 26.210938 C 223.324219 25.792969 221.585938 25.414062 219.839844 25.078125 C 218.089844 24.742188 216.335938 24.449219 214.574219 24.195312 C 212.8125 23.945312 211.046875 23.738281 209.273438 23.570312 C 207.5 23.402344 205.726562 23.28125 203.949219 23.199219 C 202.171875 23.117188 200.390625 23.078125 198.613281 23.082031 Z M 198.613281 23.082031 " fill-opacity="1" fill-rule="nonzero"/><g clip-path="url(#7ae4289351)"><path fill="#92d7e7" d="M 264.511719 331.949219 L 263.15625 332.480469 L 261.789062 332.988281 C 260.878906 333.3125 259.984375 333.707031 259.0625 333.960938 C 258.136719 334.210938 257.238281 334.578125 256.328125 334.875 L 253.582031 335.703125 C 252.664062 335.980469 251.734375 336.210938 250.820312 336.46875 C 250.363281 336.59375 249.910156 336.730469 249.449219 336.828125 L 248.058594 337.152344 C 246.21875 337.609375 244.367188 337.96875 242.519531 338.335938 C 238.808594 338.984375 235.097656 339.464844 231.386719 339.777344 L 228.59375 339.945312 C 227.671875 340.023438 226.734375 340.03125 225.804688 340.054688 C 224.875 340.074219 223.953125 340.125 223.019531 340.105469 L 220.238281 340.105469 C 216.542969 340.023438 212.863281 339.757812 209.199219 339.304688 C 201.859375 338.378906 194.679688 336.75 187.660156 334.414062 C 185.90625 333.828125 184.167969 333.21875 182.445312 332.546875 C 181.585938 332.207031 180.714844 331.898438 179.863281 331.53125 C 179.011719 331.160156 178.167969 330.808594 177.28125 330.433594 C 173.757812 328.917969 170.246094 327.347656 166.710938 325.738281 C 159.644531 322.539062 152.519531 319.207031 145.179688 316.140625 C 143.355469 315.355469 141.480469 314.632812 139.632812 313.890625 C 137.789062 313.148438 135.871094 312.449219 133.988281 311.800781 C 133.042969 311.46875 132.078125 311.160156 131.105469 310.839844 C 130.128906 310.523438 129.199219 310.191406 128.21875 309.910156 L 125.300781 309.082031 L 123.855469 308.664062 C 123.375 308.527344 122.875 308.417969 122.414062 308.304688 C 120.4375 307.84375 118.484375 307.34375 116.480469 307.027344 C 115.476562 306.855469 114.488281 306.667969 113.488281 306.507812 C 112.484375 306.347656 111.476562 306.261719 110.472656 306.148438 C 108.484375 305.867188 106.441406 305.84375 104.453125 305.742188 C 103.449219 305.6875 102.441406 305.742188 101.4375 305.742188 C 100.4375 305.742188 99.433594 305.824219 98.445312 305.878906 C 99.398438 306.191406 100.347656 306.492188 101.292969 306.78125 C 102.238281 307.070312 103.183594 307.316406 104.105469 307.683594 L 106.882812 308.65625 L 107.566406 308.902344 C 107.796875 308.972656 108.027344 309.0625 108.289062 309.15625 L 109.652344 309.695312 C 110.554688 310.054688 111.453125 310.417969 112.347656 310.761719 C 113.242188 311.109375 114.128906 311.546875 115.007812 311.9375 C 115.890625 312.328125 116.78125 312.660156 117.65625 313.113281 L 120.257812 314.367188 C 120.691406 314.585938 121.132812 314.773438 121.5625 314.988281 L 122.847656 315.644531 L 125.421875 316.964844 C 127.125 317.871094 128.832031 318.765625 130.519531 319.691406 C 133.902344 321.578125 137.269531 323.46875 140.652344 325.421875 C 147.402344 329.300781 154.214844 333.238281 161.261719 336.960938 L 162.578125 337.679688 L 163.921875 338.359375 L 166.597656 339.714844 C 167.484375 340.175781 168.390625 340.601562 169.300781 341.027344 L 172.019531 342.324219 C 172.90625 342.757812 173.894531 343.167969 174.839844 343.585938 C 175.78125 344.003906 176.757812 344.394531 177.722656 344.789062 C 179.65625 345.554688 181.617188 346.269531 183.59375 346.953125 C 191.558594 349.601562 199.730469 351.207031 208.109375 351.761719 C 212.277344 352.046875 216.445312 352.046875 220.613281 351.761719 L 223.714844 351.496094 C 224.234375 351.460938 224.746094 351.390625 225.265625 351.324219 L 226.808594 351.121094 C 228.871094 350.882812 230.902344 350.464844 232.945312 350.097656 C 236.972656 349.210938 240.925781 348.0625 244.804688 346.652344 C 246.722656 345.929688 248.65625 345.207031 250.523438 344.34375 L 251.921875 343.714844 C 252.390625 343.507812 252.847656 343.261719 253.308594 343.046875 L 254.675781 342.324219 C 255.132812 342.101562 255.59375 341.882812 256.039062 341.601562 C 259.621094 339.683594 263.042969 337.507812 266.300781 335.078125 C 269.539062 332.683594 272.554688 330.042969 275.351562 327.144531 C 271.722656 328.917969 268.132812 330.519531 264.511719 331.949219 Z M 264.511719 331.949219 " fill-opacity="1" fill-rule="nonzero"/></g><path fill="#2d6d5c" d="M 233.074219 213.003906 L 148.707031 151.292969 C 148.472656 151.121094 148.210938 151.035156 147.921875 151.035156 C 147.632812 151.035156 147.375 151.121094 147.140625 151.292969 L 62.773438 213.003906 C 62.539062 213.171875 62.378906 213.394531 62.289062 213.667969 C 62.199219 213.941406 62.199219 214.21875 62.289062 214.492188 C 62.378906 214.765625 62.542969 214.984375 62.777344 215.15625 C 63.011719 215.324219 63.269531 215.40625 63.558594 215.40625 L 75.457031 215.40625 C 75.632812 215.402344 75.804688 215.4375 75.96875 215.503906 C 76.128906 215.570312 76.273438 215.667969 76.398438 215.792969 C 76.523438 215.914062 76.621094 216.058594 76.691406 216.222656 C 76.757812 216.386719 76.792969 216.554688 76.792969 216.730469 L 76.792969 260.582031 C 76.789062 260.691406 76.800781 260.800781 76.828125 260.90625 C 76.855469 261.011719 76.894531 261.113281 76.945312 261.210938 C 76.996094 261.308594 77.058594 261.398438 77.132812 261.480469 C 77.203125 261.558594 77.289062 261.632812 77.378906 261.691406 C 77.46875 261.753906 77.566406 261.800781 77.671875 261.839844 C 77.773438 261.875 77.878906 261.898438 77.988281 261.910156 C 78.097656 261.917969 78.207031 261.914062 78.316406 261.898438 C 78.425781 261.878906 78.527344 261.851562 78.628906 261.808594 C 80.003906 261.214844 81.390625 260.660156 82.789062 260.132812 C 93.472656 256.15625 104.511719 254.1875 115.910156 254.222656 C 138.601562 254.222656 162.890625 261.929688 188.121094 277.144531 C 189.261719 277.792969 190.402344 278.4375 191.554688 279.078125 C 199.808594 283.328125 208.460938 286.492188 217.511719 288.566406 C 217.707031 288.609375 217.902344 288.609375 218.097656 288.5625 C 218.292969 288.515625 218.46875 288.429688 218.625 288.304688 C 218.78125 288.175781 218.90625 288.023438 218.992188 287.84375 C 219.078125 287.660156 219.121094 287.46875 219.121094 287.269531 L 219.121094 216.730469 C 219.121094 216.554688 219.152344 216.386719 219.222656 216.222656 C 219.289062 216.0625 219.382812 215.917969 219.507812 215.792969 C 219.632812 215.667969 219.777344 215.574219 219.9375 215.507812 C 220.101562 215.4375 220.269531 215.40625 220.445312 215.40625 L 232.308594 215.40625 C 232.59375 215.402344 232.855469 215.316406 233.082031 215.144531 C 233.3125 214.976562 233.472656 214.753906 233.558594 214.480469 C 233.644531 214.207031 233.644531 213.9375 233.554688 213.664062 C 233.464844 213.390625 233.304688 213.171875 233.074219 213.003906 Z M 144.171875 228.96875 C 144.167969 229.144531 144.132812 229.3125 144.066406 229.476562 C 144 229.636719 143.902344 229.78125 143.777344 229.90625 C 143.65625 230.027344 143.511719 230.125 143.351562 230.191406 C 143.1875 230.261719 143.019531 230.292969 142.84375 230.296875 L 132.921875 230.296875 C 132.746094 230.296875 132.574219 230.261719 132.414062 230.195312 C 132.25 230.128906 132.105469 230.03125 131.984375 229.90625 C 131.859375 229.78125 131.761719 229.640625 131.695312 229.476562 C 131.628906 229.3125 131.59375 229.144531 131.59375 228.96875 L 131.59375 219.039062 C 131.59375 218.863281 131.628906 218.695312 131.695312 218.53125 C 131.761719 218.367188 131.859375 218.226562 131.984375 218.101562 C 132.105469 217.976562 132.25 217.882812 132.414062 217.8125 C 132.574219 217.746094 132.746094 217.710938 132.921875 217.710938 L 142.84375 217.710938 C 143.019531 217.714844 143.1875 217.746094 143.351562 217.816406 C 143.511719 217.882812 143.65625 217.980469 143.777344 218.101562 C 143.902344 218.226562 144 218.371094 144.066406 218.53125 C 144.132812 218.695312 144.167969 218.863281 144.171875 219.039062 Z M 144.171875 210.574219 C 144.167969 210.75 144.132812 210.917969 144.066406 211.082031 C 144 211.242188 143.902344 211.386719 143.777344 211.511719 C 143.65625 211.632812 143.511719 211.730469 143.351562 211.796875 C 143.1875 211.867188 143.019531 211.898438 142.84375 211.902344 L 132.921875 211.902344 C 132.746094 211.902344 132.574219 211.867188 132.410156 211.800781 C 132.25 211.730469 132.105469 211.632812 131.980469 211.507812 C 131.855469 211.382812 131.761719 211.238281 131.691406 211.078125 C 131.625 210.914062 131.59375 210.742188 131.59375 210.566406 L 131.59375 200.644531 C 131.59375 200.46875 131.628906 200.300781 131.695312 200.136719 C 131.761719 199.972656 131.859375 199.832031 131.984375 199.707031 C 132.105469 199.582031 132.25 199.484375 132.414062 199.417969 C 132.574219 199.351562 132.746094 199.316406 132.921875 199.316406 L 142.84375 199.316406 C 143.019531 199.320312 143.1875 199.351562 143.351562 199.421875 C 143.511719 199.488281 143.65625 199.585938 143.777344 199.707031 C 143.902344 199.832031 144 199.976562 144.066406 200.136719 C 144.132812 200.300781 144.167969 200.46875 144.171875 200.644531 Z M 164.304688 228.96875 C 164.300781 229.144531 164.265625 229.316406 164.199219 229.476562 C 164.132812 229.640625 164.035156 229.78125 163.910156 229.90625 C 163.785156 230.03125 163.640625 230.128906 163.476562 230.195312 C 163.316406 230.261719 163.144531 230.296875 162.96875 230.296875 L 153.046875 230.296875 C 152.871094 230.292969 152.703125 230.261719 152.539062 230.191406 C 152.378906 230.125 152.234375 230.027344 152.109375 229.90625 C 151.988281 229.78125 151.890625 229.636719 151.824219 229.476562 C 151.753906 229.3125 151.722656 229.144531 151.71875 228.96875 L 151.71875 219.039062 C 151.722656 218.863281 151.753906 218.695312 151.824219 218.53125 C 151.890625 218.371094 151.988281 218.226562 152.109375 218.101562 C 152.234375 217.980469 152.378906 217.882812 152.539062 217.816406 C 152.703125 217.746094 152.871094 217.714844 153.046875 217.710938 L 162.96875 217.710938 C 163.144531 217.710938 163.316406 217.746094 163.476562 217.8125 C 163.640625 217.878906 163.785156 217.976562 163.910156 218.101562 C 164.035156 218.226562 164.132812 218.367188 164.199219 218.53125 C 164.265625 218.695312 164.300781 218.863281 164.304688 219.039062 Z M 164.304688 210.574219 C 164.300781 210.75 164.265625 210.917969 164.199219 211.082031 C 164.132812 211.246094 164.035156 211.386719 163.910156 211.511719 C 163.785156 211.636719 163.640625 211.734375 163.476562 211.800781 C 163.316406 211.867188 163.144531 211.902344 162.96875 211.902344 L 153.046875 211.902344 C 152.871094 211.898438 152.703125 211.867188 152.539062 211.796875 C 152.378906 211.730469 152.234375 211.632812 152.109375 211.511719 C 151.988281 211.386719 151.890625 211.242188 151.824219 211.082031 C 151.753906 210.917969 151.722656 210.75 151.71875 210.574219 L 151.71875 200.644531 C 151.722656 200.46875 151.753906 200.300781 151.824219 200.136719 C 151.890625 199.976562 151.988281 199.832031 152.109375 199.707031 C 152.234375 199.585938 152.378906 199.488281 152.539062 199.421875 C 152.703125 199.351562 152.871094 199.320312 153.046875 199.316406 L 162.96875 199.316406 C 163.144531 199.316406 163.316406 199.351562 163.476562 199.417969 C 163.640625 199.484375 163.785156 199.582031 163.910156 199.707031 C 164.035156 199.828125 164.132812 199.972656 164.199219 200.136719 C 164.265625 200.296875 164.300781 200.46875 164.304688 200.644531 Z M 164.304688 210.574219 " fill-opacity="1" fill-rule="nonzero"/><path fill="#2d6d5c" d="M 279.035156 281.609375 C 273.535156 284.183594 267.847656 286.25 261.976562 287.800781 C 258.175781 288.796875 254.332031 289.554688 250.4375 290.074219 C 247.933594 202.546875 296.449219 134.128906 296.449219 134.128906 C 272.34375 189.511719 275.625 252.324219 279.035156 281.609375 Z M 279.035156 281.609375 " fill-opacity="1" fill-rule="nonzero"/><g clip-path="url(#14b82c1ddf)"><path fill="#00bbd6" d="M 300.742188 277.980469 C 295.1875 281.972656 289.320312 285.429688 283.140625 288.359375 C 276.960938 291.285156 270.570312 293.632812 263.964844 295.402344 C 244.035156 300.644531 218.6875 301.035156 190.148438 287.167969 C 187.984375 286.101562 185.820312 284.941406 183.730469 283.683594 C 141.328125 258.214844 108.734375 258.800781 85.539062 267.496094 C 79.632812 269.75 74.019531 272.585938 68.703125 276.007812 C 63.386719 279.429688 58.480469 283.359375 53.984375 287.800781 C 45.699219 295.90625 41.566406 302.867188 41.457031 303.0625 C 44.722656 301.144531 47.890625 299.457031 50.996094 297.898438 C 66.011719 290.519531 79.273438 287.679688 91.589844 287.800781 C 121.21875 288.121094 145.410156 305.691406 175.457031 319.027344 C 182.386719 322.148438 189.570312 324.484375 197.011719 326.035156 C 204.449219 327.585938 211.96875 328.316406 219.566406 328.226562 C 248.902344 327.699219 270.636719 314.816406 285.402344 301.367188 C 291.621094 295.6875 297.199219 289.4375 302.140625 282.617188 C 304.960938 278.835938 307.480469 274.867188 309.703125 270.707031 C 306.890625 273.347656 303.902344 275.773438 300.742188 277.980469 Z M 300.742188 277.980469 " fill-opacity="1" fill-rule="nonzero"/></g><path fill="#2d6d5c" d="M 293.839844 169.761719 C 293.839844 169.761719 303.367188 204.976562 295.101562 242.710938 C 295.109375 242.710938 336.796875 215.765625 293.839844 169.761719 Z M 293.839844 169.761719 " fill-opacity="1" fill-rule="nonzero"/><path fill="#2d6d5c" d="M 295.460938 157.617188 C 295.460938 157.617188 321.675781 182.992188 333.894531 219.628906 C 333.894531 219.636719 355.902344 175.140625 295.460938 157.617188 Z M 295.460938 157.617188 " fill-opacity="1" fill-rule="nonzero"/><path fill="#2d6d5c" d="M 298.554688 148.320312 C 298.554688 148.320312 323.988281 158.785156 342.773438 181.039062 C 342.773438 181.039062 345.757812 143.734375 298.554688 148.320312 Z M 298.554688 148.320312 " fill-opacity="1" fill-rule="nonzero"/><path fill="#2d6d5c" d="M 299.816406 140.621094 C 299.816406 140.621094 323.058594 138.804688 345.78125 148.453125 C 345.757812 148.4375 333.773438 119.074219 299.816406 140.621094 Z M 299.816406 140.621094 " fill-opacity="1" fill-rule="nonzero"/><path fill="#2d6d5c" d="M 279.980469 153.882812 C 279.980469 153.882812 243.808594 158.625 212.15625 180.765625 C 212.15625 180.765625 221.007812 131.917969 279.980469 153.882812 Z M 279.980469 153.882812 " fill-opacity="1" fill-rule="nonzero"/><path fill="#2d6d5c" d="M 281.277344 144.695312 C 281.277344 144.695312 247.777344 130.273438 209.25 133.050781 C 209.25 133.050781 241.871094 95.632812 281.277344 144.695312 Z M 281.277344 144.695312 " fill-opacity="1" fill-rule="nonzero"/><path fill="#2d6d5c" d="M 285.699219 137.664062 C 285.699219 137.664062 266.265625 118.195312 238.503906 109.417969 C 238.503906 109.417969 271.78125 92.308594 285.699219 137.664062 Z M 285.699219 137.664062 " fill-opacity="1" fill-rule="nonzero"/><path fill="#2d6d5c" d="M 291.394531 132.046875 C 291.394531 132.046875 284.140625 109.894531 266.503906 92.625 C 266.503906 92.625 298.21875 92.421875 291.394531 132.046875 Z M 291.394531 132.046875 " fill-opacity="1" fill-rule="nonzero"/><g clip-path="url(#dae39fd09e)"><path fill="#234580" d="M 229.054688 63.039062 C 232.652344 64.480469 237.503906 64.480469 237.503906 68.4375 C 237.503906 77.789062 198.847656 83.363281 197.40625 83.363281 L 184.640625 111.238281 C 183.738281 113.394531 182.480469 113.9375 181.039062 114.113281 L 176.902344 114.472656 L 176.902344 95.054688 L 168.8125 87.859375 C 167.910156 87.859375 162.691406 88.753906 151.90625 88.753906 C 139.320312 88.753906 135.902344 88.21875 135.003906 88.21875 L 133.566406 94.332031 C 133.382812 95.414062 130.328125 95.949219 129.789062 95.230469 L 123.3125 86.597656 C 122.058594 86.597656 118.820312 86.242188 118.820312 85.160156 C 118.820312 83.726562 119.359375 83.183594 120.078125 82.828125 L 106.410156 70.054688 C 105.515625 69.160156 108.75 67.363281 111.625 68.792969 L 124.933594 75.089844 L 124.035156 64.660156 L 127.089844 64.125 C 128.171875 63.941406 130.511719 65.5625 131.226562 66.277344 L 140.582031 76.351562 L 156.765625 73.289062 L 149.210938 65.5625 L 113.789062 43.265625 L 116.84375 40.925781 C 116.84375 40.925781 117.5625 40.207031 120.082031 40.207031 L 190.390625 67.542969 L 212.332031 63.40625 C 213.230469 63.222656 217.007812 61.066406 221.5 61.066406 C 226.359375 61.066406 226.359375 61.964844 229.058594 63.039062 " fill-opacity="1" fill-rule="nonzero"/></g><g clip-path="url(#b9248c74cf)"><g clip-path="url(#bb1d9b48a6)"><g clip-path="url(#dee6d2261d)"><path fill="#234580" d="M 177.289062 56.617188 C 177.417969 57.039062 177.394531 57.496094 177.238281 57.972656 C 176.496094 60.300781 172.699219 63.167969 168.605469 65.683594 C 167.863281 66.144531 167.113281 66.585938 166.363281 67.011719 C 161.695312 69.691406 157.308594 71.695312 157.308594 71.695312 L 157.277344 77.269531 L 159.453125 76.261719 C 160.355469 75.847656 161.417969 76.242188 161.835938 77.140625 C 162.25 78.042969 161.859375 79.109375 160.960938 79.523438 L 157.253906 81.234375 L 157.132812 103.722656 L 154.710938 104.664062 L 148.828125 89.8125 L 147.238281 85.789062 L 146.730469 86.023438 C 146.179688 86.277344 145.542969 86.242188 145.027344 85.929688 C 143.78125 85.179688 143.878906 83.335938 145.199219 82.722656 L 145.898438 82.402344 L 144.261719 78.265625 L 142.457031 79.15625 L 132.570312 84.039062 L 129.386719 94.605469 L 128.863281 95.378906 L 128.039062 96.617188 L 127.722656 95.523438 L 124.027344 82.765625 L 114.828125 73.203125 L 117.550781 72.8125 L 128.546875 76.410156 L 137.621094 71.597656 L 138.535156 71.117188 L 140.171875 70.246094 L 136.78125 65.824219 L 135.453125 66.441406 C 134.902344 66.695312 134.265625 66.660156 133.753906 66.347656 C 132.503906 65.597656 132.605469 63.757812 133.925781 63.144531 L 134.511719 62.871094 L 122.355469 47.023438 L 124.402344 45.777344 L 144.84375 58.207031 C 144.957031 58.121094 145.074219 58.039062 145.207031 57.976562 L 149.265625 56.105469 C 150.164062 55.6875 151.230469 56.082031 151.648438 56.980469 C 152.0625 57.882812 151.671875 58.945312 150.769531 59.363281 L 148.484375 60.421875 L 153.234375 63.308594 C 153.234375 63.308594 157.179688 61.222656 161.882812 59.175781 C 162.453125 58.925781 163.039062 58.671875 163.628906 58.429688 C 169.742188 55.894531 176.449219 53.851562 177.289062 56.617188 " fill-opacity="1" fill-rule="nonzero"/></g></g></g><g clip-path="url(#ddb3b79452)"><g clip-path="url(#5035bf6cbd)"><g clip-path="url(#f0e76eb1e7)"><path fill="#234580" d="M 118.261719 93.59375 C 118.261719 93.59375 117.152344 94.160156 115.078125 95.222656 C 112.960938 96.289062 110.050781 97.816406 106.3125 99.828125 C 102.582031 101.875 98.042969 104.363281 93.03125 107.445312 C 88.015625 110.523438 82.425781 114.101562 76.699219 118.402344 C 70.992188 122.707031 65.054688 127.671875 59.636719 133.582031 C 54.253906 139.507812 49.34375 146.324219 46.101562 154.214844 C 42.910156 161.941406 41.664062 170.867188 42.777344 179.769531 C 43.351562 184.226562 44.476562 188.683594 46.089844 193.019531 C 47.734375 197.347656 49.867188 201.546875 52.375 205.542969 C 57.398438 213.546875 64 220.644531 71.320312 226.640625 C 73.152344 228.140625 75.042969 229.5625 76.960938 230.925781 L 77.320312 231.1875 C 77.210938 231.121094 77.34375 231.203125 77.34375 231.203125 L 77.4375 231.265625 L 77.628906 231.390625 L 78.386719 231.890625 L 79.898438 232.886719 C 80.90625 233.550781 81.910156 234.214844 82.914062 234.875 C 84.917969 236.058594 86.90625 237.238281 88.886719 238.40625 C 90.941406 239.496094 92.984375 240.574219 95.007812 241.644531 C 103.21875 245.757812 111.53125 249.054688 119.550781 251.789062 C 120.554688 252.136719 121.550781 252.476562 122.539062 252.816406 C 123.539062 253.125 124.53125 253.433594 125.515625 253.742188 C 127.488281 254.339844 129.414062 254.988281 131.347656 255.5 C 133.273438 256.042969 135.167969 256.570312 137.027344 257.09375 C 138.898438 257.566406 140.734375 258.03125 142.535156 258.484375 C 144.332031 258.957031 146.109375 259.347656 147.84375 259.746094 C 149.578125 260.132812 151.269531 260.542969 152.929688 260.886719 C 156.253906 261.554688 159.394531 262.257812 162.375 262.78125 C 165.347656 263.335938 168.132812 263.863281 170.71875 264.277344 C 173.300781 264.707031 175.671875 265.125 177.824219 265.433594 C 179.976562 265.757812 181.894531 266.050781 183.566406 266.304688 C 185.238281 266.535156 186.660156 266.730469 187.816406 266.886719 C 190.125 267.207031 191.359375 267.375 191.359375 267.375 C 191.359375 267.375 190.117188 267.269531 187.796875 267.070312 C 186.632812 266.972656 185.203125 266.847656 183.515625 266.703125 C 181.835938 266.535156 179.902344 266.34375 177.734375 266.128906 C 175.566406 265.929688 173.175781 265.636719 170.566406 265.335938 C 167.953125 265.054688 165.140625 264.671875 162.132812 264.269531 C 159.121094 263.898438 155.933594 263.355469 152.558594 262.855469 C 150.875 262.59375 149.160156 262.269531 147.394531 261.96875 C 145.628906 261.660156 143.820312 261.359375 141.988281 260.976562 C 140.152344 260.613281 138.277344 260.238281 136.367188 259.859375 C 134.460938 259.429688 132.527344 258.992188 130.554688 258.546875 C 128.574219 258.128906 126.59375 257.574219 124.566406 257.070312 C 123.550781 256.808594 122.53125 256.550781 121.503906 256.289062 C 120.484375 255.996094 119.457031 255.699219 118.421875 255.402344 C 110.136719 253.042969 101.488281 250.125 92.816406 246.320312 C 90.664062 245.324219 88.496094 244.316406 86.3125 243.300781 C 84.15625 242.164062 81.984375 241.023438 79.796875 239.875 C 78.761719 239.269531 77.722656 238.660156 76.683594 238.046875 L 75.121094 237.128906 L 74.339844 236.667969 L 73.878906 236.394531 L 73.484375 236.136719 C 71.378906 234.796875 69.296875 233.390625 67.261719 231.894531 C 59.132812 225.90625 51.605469 218.640625 45.589844 210.082031 C 42.589844 205.804688 39.953125 201.226562 37.828125 196.394531 C 35.730469 191.546875 34.148438 186.457031 33.203125 181.242188 C 31.34375 170.792969 32.234375 159.949219 35.671875 150.25 C 36.117188 149.015625 36.582031 147.679688 37.023438 146.6875 L 37.691406 145.09375 L 37.773438 144.894531 L 37.816406 144.796875 C 37.769531 144.886719 37.921875 144.558594 37.925781 144.554688 L 38.132812 144.136719 L 38.546875 143.304688 C 39.105469 142.191406 39.65625 141.085938 40.207031 139.988281 C 40.765625 138.890625 41.433594 137.878906 42.039062 136.828125 C 44.476562 132.636719 47.328125 128.90625 50.171875 125.359375 C 55.964844 118.355469 62.207031 112.585938 68.148438 107.601562 C 74.109375 102.628906 79.851562 98.527344 84.992188 95 C 90.128906 91.464844 94.726562 88.632812 98.507812 86.292969 C 102.316406 83.984375 105.375 82.175781 107.363281 81.042969 C 109.382812 79.875 110.460938 79.253906 110.460938 79.253906 L 118.261719 93.59375 " fill-opacity="1" fill-rule="nonzero"/></g></g></g></svg>